<mxfile host="app.diagrams.net" modified="2021-09-01T14:21:17.321Z" agent="5.0 (Windows NT 10.0; Win64; x64) AppleWebKit/537.36 (KHTML, like Gecko) Chrome/92.0.4515.159 Safari/537.36" etag="92BIHi0NXFpeR1kjiANt" version="15.0.4" type="github">
  <diagram id="5udGkWhxLaS7N40Kc7rl" name="Page-1">
    <mxGraphModel dx="1038" dy="547" grid="1" gridSize="10" guides="1" tooltips="1" connect="1" arrows="1" fold="1" page="1" pageScale="1" pageWidth="850" pageHeight="1100" math="0" shadow="0">
      <root>
        <mxCell id="0" />
        <mxCell id="1" parent="0" />
        <mxCell id="uj9vqSk_5hpUtKcbf7qi-6" style="edgeStyle=orthogonalEdgeStyle;rounded=0;orthogonalLoop=1;jettySize=auto;html=1;exitX=0.5;exitY=1;exitDx=0;exitDy=0;entryX=0.5;entryY=0;entryDx=0;entryDy=0;" edge="1" parent="1" source="uj9vqSk_5hpUtKcbf7qi-1" target="uj9vqSk_5hpUtKcbf7qi-4">
          <mxGeometry relative="1" as="geometry" />
        </mxCell>
        <mxCell id="uj9vqSk_5hpUtKcbf7qi-1" value="start" style="rounded=1;whiteSpace=wrap;html=1;" vertex="1" parent="1">
          <mxGeometry x="390" y="10" width="120" height="60" as="geometry" />
        </mxCell>
        <mxCell id="uj9vqSk_5hpUtKcbf7qi-8" style="edgeStyle=orthogonalEdgeStyle;rounded=0;orthogonalLoop=1;jettySize=auto;html=1;exitX=0.5;exitY=1;exitDx=0;exitDy=0;entryX=0.5;entryY=0;entryDx=0;entryDy=0;" edge="1" parent="1" source="uj9vqSk_5hpUtKcbf7qi-4" target="uj9vqSk_5hpUtKcbf7qi-7">
          <mxGeometry relative="1" as="geometry" />
        </mxCell>
        <mxCell id="uj9vqSk_5hpUtKcbf7qi-4" value="enter starting balance" style="shape=parallelogram;perimeter=parallelogramPerimeter;whiteSpace=wrap;html=1;fixedSize=1;" vertex="1" parent="1">
          <mxGeometry x="380" y="130" width="140" height="70" as="geometry" />
        </mxCell>
        <mxCell id="uj9vqSk_5hpUtKcbf7qi-11" style="edgeStyle=orthogonalEdgeStyle;rounded=0;orthogonalLoop=1;jettySize=auto;html=1;exitX=0.5;exitY=1;exitDx=0;exitDy=0;entryX=0.5;entryY=0;entryDx=0;entryDy=0;" edge="1" parent="1" source="uj9vqSk_5hpUtKcbf7qi-7" target="uj9vqSk_5hpUtKcbf7qi-10">
          <mxGeometry relative="1" as="geometry" />
        </mxCell>
        <mxCell id="uj9vqSk_5hpUtKcbf7qi-7" value="enter yearly contribution&amp;nbsp;" style="shape=parallelogram;perimeter=parallelogramPerimeter;whiteSpace=wrap;html=1;fixedSize=1;" vertex="1" parent="1">
          <mxGeometry x="370" y="220" width="130" height="70" as="geometry" />
        </mxCell>
        <mxCell id="uj9vqSk_5hpUtKcbf7qi-13" style="edgeStyle=orthogonalEdgeStyle;rounded=0;orthogonalLoop=1;jettySize=auto;html=1;exitX=0.5;exitY=1;exitDx=0;exitDy=0;entryX=0.5;entryY=0;entryDx=0;entryDy=0;" edge="1" parent="1" source="uj9vqSk_5hpUtKcbf7qi-10" target="uj9vqSk_5hpUtKcbf7qi-12">
          <mxGeometry relative="1" as="geometry" />
        </mxCell>
        <mxCell id="uj9vqSk_5hpUtKcbf7qi-10" value="Enter Average Return On Investment as %:" style="shape=parallelogram;perimeter=parallelogramPerimeter;whiteSpace=wrap;html=1;fixedSize=1;" vertex="1" parent="1">
          <mxGeometry x="352.5" y="320" width="165" height="70" as="geometry" />
        </mxCell>
        <mxCell id="uj9vqSk_5hpUtKcbf7qi-15" style="edgeStyle=orthogonalEdgeStyle;rounded=0;orthogonalLoop=1;jettySize=auto;html=1;exitX=0.5;exitY=1;exitDx=0;exitDy=0;entryX=0.5;entryY=0;entryDx=0;entryDy=0;" edge="1" parent="1" source="uj9vqSk_5hpUtKcbf7qi-12" target="uj9vqSk_5hpUtKcbf7qi-14">
          <mxGeometry relative="1" as="geometry" />
        </mxCell>
        <mxCell id="uj9vqSk_5hpUtKcbf7qi-12" value="Enter Number of years:" style="shape=parallelogram;perimeter=parallelogramPerimeter;whiteSpace=wrap;html=1;fixedSize=1;" vertex="1" parent="1">
          <mxGeometry x="365" y="430" width="120" height="60" as="geometry" />
        </mxCell>
        <mxCell id="uj9vqSk_5hpUtKcbf7qi-17" style="edgeStyle=orthogonalEdgeStyle;rounded=0;orthogonalLoop=1;jettySize=auto;html=1;exitX=0.5;exitY=1;exitDx=0;exitDy=0;entryX=0.5;entryY=0;entryDx=0;entryDy=0;" edge="1" parent="1" source="uj9vqSk_5hpUtKcbf7qi-14" target="uj9vqSk_5hpUtKcbf7qi-16">
          <mxGeometry relative="1" as="geometry" />
        </mxCell>
        <mxCell id="uj9vqSk_5hpUtKcbf7qi-14" value="starting balance + yearly contribution *&amp;nbsp;&amp;nbsp;Average Return %:" style="rounded=0;whiteSpace=wrap;html=1;" vertex="1" parent="1">
          <mxGeometry x="365" y="520" width="125" height="60" as="geometry" />
        </mxCell>
        <mxCell id="uj9vqSk_5hpUtKcbf7qi-16" value="end" style="rounded=1;whiteSpace=wrap;html=1;" vertex="1" parent="1">
          <mxGeometry x="375" y="630" width="120" height="60" as="geometry" />
        </mxCell>
      </root>
    </mxGraphModel>
  </diagram>
</mxfile>
